# xmcd CD database file
# Copyright (C) 1996 Ti Kan
#
# Track frame offsets:
# 	150
# 	18207
# 	34935
# 	48282
# 	60477
# 	81095
# 	95412
# 	112805
# 	127075
# 	142370
# 	157237
# 	170450
#
# Disc length: 2476 seconds
#
# Revision: 1
# Processed by: cddbd v1.4b41PL1 Copyright (c) Steve Scherf et al.
# Submitted via: DiscPlay 3.4.1
#
DISCID=a009aa0c
DTITLE=Norma Murphy - Colours
DYEAR=1900
DGENRE=
TTITLE0=My Dreams Never Come True
TTITLE1=Rose Gray
TTITLE2=Cane Train
TTITLE3=The Turkey Song
TTITLE4=Cobb and Co
TTITLE5=Sydney Or The Bush
TTITLE6=Soldier Green
TTITLE7=Rumours
TTITLE8=The Old Bush School
TTITLE9=Colonial Ladies
TTITLE10=Where Do All The Years Go
TTITLE11=Along The Bruce Highway
EXTD=
EXTT0=
EXTT1=
EXTT2=
EXTT3=
EXTT4=
EXTT5=
EXTT6=
EXTT7=
EXTT8=
EXTT9=
EXTT10=
EXTT11=
PLAYORDER=
